<?xml version="1.0" encoding="UTF-8"?>
<svg width="140" height="140" version="1.1" viewBox="0 0 140 140" xmlns="http://www.w3.org/2000/svg"><path d="m68 0.050781c-37.621 1.0685-68 32.078-68 69.949 0 17.149 6.2399 32.885 16.549 45.082 6.3451-2.3558 12.198-6.0263 17.059-10.725-8.4407-8.9419-13.607-21.012-13.607-34.357 0-27.062 21.206-48.908 48-49.949zm2 121.59c-6.4429 6.1768-13.999 11.198-22.195 14.719 6.9823 2.3482 14.441 3.6406 22.195 3.6406z" fill="#ffbf3f"/><path d="m120 0c-7.7115 0-15.131 1.278-22.08 3.6016 2.4368 1.0497 4.8146 2.2349 7.1211 3.5488 4.7301-2.6788 9.7525-4.8296 14.959-6.375zm-49.885 21.914c-0.299 0.0017-0.59908 0.01939-0.89844 0.02734-11.891 12.557-19.217 29.478-19.217 48.059 0 27.733-22.267 50-50 50v20c6.2201 0 12.251-0.83093 18-2.3672v-19.609c18.725 0.91257 37.354-10.103 45.275-27.137 6.1849-11.143 3.643-24.156 6.3574-36.109 2.2722-11.348 7.5796-21.799 14.928-30.566-4.6435-1.5151-9.5176-2.3256-14.445-2.2969z" fill="#ffbf3f"/><path d="m140 0c-11.921 0-23.161 3.0165-33.006 8.3145 6.3377 3.8765 12.099 8.7119 17.025 14.283 5.0143-1.6763 10.383-2.5977 15.98-2.5977zm-53.447 24.912c-7.8516 9.2879-13.328 20.631-15.498 33.088h20.389c2.0789-8.5209 6.3253-16.162 12.129-22.322-4.8612-4.6911-10.692-8.3894-17.02-10.766zm-17.996 57.088c-5.339 21.883-24.966 38-48.557 38v20c34.45 0 63.22-25.14 68.945-58z" fill="#ffbf3f"/><path d="m70 0v20c24.305 0 44.409 17.104 49.008 40h-48.279c-0.47161 3.2687-0.72852 6.6047-0.72852 10 0 3.4275-0.34365 6.7712-0.99219 10h50.992v60h20v-70c0-38.541-31.459-70-70-70z" fill="#ffbf3f"/></svg>
